<mxfile host="app.diagrams.net" modified="2021-05-04T13:54:59.358Z" agent="5.0 (Macintosh; Intel Mac OS X 10_14_6) AppleWebKit/605.1.15 (KHTML, like Gecko) Version/14.0.3 Safari/605.1.15" etag="E5Cs0hTPwQ9N8fl_IHbD" version="14.6.9" type="github">
  <diagram id="o8QKLm-ax5yYajA0nv84" name="Page-1">
    <mxGraphModel dx="1426" dy="794" grid="1" gridSize="10" guides="1" tooltips="1" connect="1" arrows="1" fold="1" page="1" pageScale="1" pageWidth="827" pageHeight="1169" math="0" shadow="0">
      <root>
        <mxCell id="0" />
        <mxCell id="1" parent="0" />
        <mxCell id="SNz0LfTpmPqGD2NdG3nT-5" style="edgeStyle=orthogonalEdgeStyle;rounded=0;orthogonalLoop=1;jettySize=auto;html=1;entryX=0;entryY=0.5;entryDx=0;entryDy=0;" edge="1" parent="1" source="SNz0LfTpmPqGD2NdG3nT-1">
          <mxGeometry relative="1" as="geometry">
            <mxPoint x="270" y="190" as="targetPoint" />
          </mxGeometry>
        </mxCell>
        <mxCell id="SNz0LfTpmPqGD2NdG3nT-1" value="Azkaban scheduled for Saturday 1 AM" style="rounded=0;whiteSpace=wrap;html=1;" vertex="1" parent="1">
          <mxGeometry x="40" y="160" width="120" height="60" as="geometry" />
        </mxCell>
        <mxCell id="SNz0LfTpmPqGD2NdG3nT-8" value="No" style="edgeStyle=orthogonalEdgeStyle;rounded=0;orthogonalLoop=1;jettySize=auto;html=1;" edge="1" parent="1" source="SNz0LfTpmPqGD2NdG3nT-3" target="SNz0LfTpmPqGD2NdG3nT-7">
          <mxGeometry relative="1" as="geometry" />
        </mxCell>
        <mxCell id="SNz0LfTpmPqGD2NdG3nT-10" value="Yes" style="edgeStyle=orthogonalEdgeStyle;rounded=0;orthogonalLoop=1;jettySize=auto;html=1;" edge="1" parent="1" source="SNz0LfTpmPqGD2NdG3nT-3" target="SNz0LfTpmPqGD2NdG3nT-9">
          <mxGeometry relative="1" as="geometry" />
        </mxCell>
        <mxCell id="SNz0LfTpmPqGD2NdG3nT-3" value="Is &amp;nbsp;there a pending record" style="rhombus;whiteSpace=wrap;html=1;" vertex="1" parent="1">
          <mxGeometry x="260" y="150" width="100" height="90" as="geometry" />
        </mxCell>
        <mxCell id="SNz0LfTpmPqGD2NdG3nT-7" value="Exit" style="text;html=1;align=center;verticalAlign=middle;resizable=0;points=[];autosize=1;strokeColor=none;" vertex="1" parent="1">
          <mxGeometry x="290" y="80" width="40" height="20" as="geometry" />
        </mxCell>
        <mxCell id="SNz0LfTpmPqGD2NdG3nT-12" value="" style="edgeStyle=orthogonalEdgeStyle;rounded=0;orthogonalLoop=1;jettySize=auto;html=1;" edge="1" parent="1" source="SNz0LfTpmPqGD2NdG3nT-9" target="SNz0LfTpmPqGD2NdG3nT-11">
          <mxGeometry relative="1" as="geometry">
            <Array as="points">
              <mxPoint x="520" y="195" />
              <mxPoint x="520" y="195" />
            </Array>
          </mxGeometry>
        </mxCell>
        <mxCell id="SNz0LfTpmPqGD2NdG3nT-13" value="No" style="edgeLabel;html=1;align=center;verticalAlign=middle;resizable=0;points=[];" vertex="1" connectable="0" parent="SNz0LfTpmPqGD2NdG3nT-12">
          <mxGeometry x="-0.1429" y="2" relative="1" as="geometry">
            <mxPoint as="offset" />
          </mxGeometry>
        </mxCell>
        <mxCell id="SNz0LfTpmPqGD2NdG3nT-21" value="" style="edgeStyle=orthogonalEdgeStyle;rounded=0;orthogonalLoop=1;jettySize=auto;html=1;" edge="1" parent="1" source="SNz0LfTpmPqGD2NdG3nT-9" target="SNz0LfTpmPqGD2NdG3nT-20">
          <mxGeometry relative="1" as="geometry" />
        </mxCell>
        <mxCell id="SNz0LfTpmPqGD2NdG3nT-9" value="Is pdm running" style="rhombus;whiteSpace=wrap;html=1;" vertex="1" parent="1">
          <mxGeometry x="423" y="155" width="80" height="80" as="geometry" />
        </mxCell>
        <mxCell id="SNz0LfTpmPqGD2NdG3nT-11" value="Update site_dim" style="rounded=0;whiteSpace=wrap;html=1;" vertex="1" parent="1">
          <mxGeometry x="560" y="165" width="120" height="60" as="geometry" />
        </mxCell>
        <mxCell id="SNz0LfTpmPqGD2NdG3nT-15" value="" style="endArrow=none;dashed=1;html=1;" edge="1" parent="1">
          <mxGeometry width="50" height="50" relative="1" as="geometry">
            <mxPoint x="520" y="200" as="sourcePoint" />
            <mxPoint x="520" y="90" as="targetPoint" />
            <Array as="points" />
          </mxGeometry>
        </mxCell>
        <mxCell id="SNz0LfTpmPqGD2NdG3nT-17" value="" style="endArrow=none;dashed=1;html=1;" edge="1" parent="1">
          <mxGeometry width="50" height="50" relative="1" as="geometry">
            <mxPoint x="400" y="90" as="sourcePoint" />
            <mxPoint x="520" y="90" as="targetPoint" />
            <Array as="points" />
          </mxGeometry>
        </mxCell>
        <mxCell id="SNz0LfTpmPqGD2NdG3nT-19" value="Retry every 15 mins for 4 hrs" style="edgeLabel;html=1;align=center;verticalAlign=middle;resizable=0;points=[];" vertex="1" connectable="0" parent="SNz0LfTpmPqGD2NdG3nT-17">
          <mxGeometry x="-0.2167" y="3" relative="1" as="geometry">
            <mxPoint x="16" as="offset" />
          </mxGeometry>
        </mxCell>
        <mxCell id="SNz0LfTpmPqGD2NdG3nT-18" value="" style="endArrow=none;dashed=1;html=1;" edge="1" parent="1">
          <mxGeometry width="50" height="50" relative="1" as="geometry">
            <mxPoint x="400" y="200" as="sourcePoint" />
            <mxPoint x="400" y="90" as="targetPoint" />
          </mxGeometry>
        </mxCell>
        <mxCell id="SNz0LfTpmPqGD2NdG3nT-20" value="Exit" style="text;html=1;align=center;verticalAlign=middle;resizable=0;points=[];autosize=1;strokeColor=none;" vertex="1" parent="1">
          <mxGeometry x="443" y="290" width="40" height="20" as="geometry" />
        </mxCell>
      </root>
    </mxGraphModel>
  </diagram>
</mxfile>
